<svg class="hidden">
<symbol fill="none" xmlns="http://www.w3.org/2000/svg" viewBox="0 0 295 59" id="logo4">
    <path d="M41.818 48.83L2.338 21.599c-4-2.76-2.64-8.506 2.349-9.857L46.647.353a5.942 5.942 0 017.957 5.484l-2.487 38.619c-.295 4.584-6.298 7.134-10.299 4.375z" fill="#E9327C"></path>
    <path d="M29.296 55.553L6.038 10.068A6.344 6.344 0 0112.655.911L55.76 7.564a6.344 6.344 0 014.68 9.159L40.585 55.555a6.344 6.344 0 01-11.288-.002z" fill="#1DACE3"></path>
    <path d="M54.498 7.368L33.011 4.052 6.63 11.215l10.53 20.6 24.658 17.016a6.355 6.355 0 001.774.842l9.366-18.315 1.54-23.99z" fill="#3A68B8"></path>
    <path d="M163.335 12.685a4.036 4.036 0 014.826-3.96 4.042 4.042 0 013.173 3.172 4.034 4.034 0 01-1.717 4.146 4.04 4.04 0 01-2.244.68 4.08 4.08 0 01-4.038-4.038zm.674 6.012h6.731V41.13h-6.731V18.697zm35.802 11.217a11.274 11.274 0 01-2.898 8.153 11.257 11.257 0 01-7.824 3.693 8.424 8.424 0 01-6.685-2.738v11.083h-6.73V18.697h6.73v2.108a8.418 8.418 0 016.685-2.735 11.266 11.266 0 0110.087 7.479 11.27 11.27 0 01.635 4.365zm-6.73 0a5.336 5.336 0 00-3.389-4.838 5.342 5.342 0 10-1.95 10.313 5.124 5.124 0 005.039-3.354 5.124 5.124 0 00.3-2.121zm27.502 4.483c0 5.16-4.487 7.359-9.333 7.359a9.822 9.822 0 01-9.645-5.341l5.831-3.319a3.683 3.683 0 003.814 2.64c1.615 0 2.421-.494 2.421-1.39 0-2.47-11.037-1.166-11.037-8.93 0-4.89 4.127-7.357 8.803-7.357a9.813 9.813 0 018.748 4.8l-5.742 3.096a3.256 3.256 0 00-3.006-1.98c-1.166 0-1.884.44-1.884 1.256-.006 2.575 11.03.87 11.03 9.166zm24.596-15.7V41.13h-6.729v-2.113a7.687 7.687 0 01-6.417 2.738c-4.532 0-8.389-3.23-8.389-9.289v-13.77h6.729v12.789a3.704 3.704 0 002.33 3.834c.5.196 1.038.28 1.574.248 2.467 0 4.181-1.435 4.181-4.621v-12.25h6.721zm38.573 8.657V41.13h-6.73V27.94c0-2.243-1.078-3.68-3.23-3.68-2.245 0-3.499 1.571-3.499 4.218V41.13h-6.732V27.94c0-2.243-1.076-3.68-3.23-3.68-2.243 0-3.499 1.571-3.499 4.218V41.13h-6.73V18.696h6.74v2.056a6.893 6.893 0 016.013-2.691 6.68 6.68 0 015.878 2.96 7.386 7.386 0 016.507-2.96c5.149.008 8.512 3.686 8.512 9.293zm5.702-8.796a4.995 4.995 0 100-9.99 4.995 4.995 0 000 9.99zm-218-10.18h6.732V41.13h-6.732V8.378zm10.543 21.536A11.884 11.884 0 1193.881 41.76a11.758 11.758 0 01-11.884-11.846zm17.051 0a5.16 5.16 0 10-5.16 5.294 5.034 5.034 0 005.169-5.294h-.009zm33.558-11.224v21.314c0 7.537-5.878 10.721-11.844 10.721a11.471 11.471 0 01-10.634-5.429l5.742-3.32a5.124 5.124 0 005.116 2.827 4.471 4.471 0 005.062-4.8V37.94a7.977 7.977 0 01-6.552 2.916 11.401 11.401 0 010-22.792 7.97 7.97 0 016.552 2.916v-2.29h6.558zm-6.55 10.768a5.428 5.428 0 00-3.197-5.178 5.437 5.437 0 10-2.236 10.391 5.077 5.077 0 005.433-5.206v-.007zm10.361.44a11.881 11.881 0 017.31-11.005 11.884 11.884 0 114.573 22.851 11.76 11.76 0 01-11.883-11.83v-.016zm17.051 0a5.163 5.163 0 10-5.161 5.295 5.031 5.031 0 005.161-5.28v-.015z" fill="#fff"></path>
</symbol>
<symbol fill="none" xmlns="http://www.w3.org/2000/svg" viewBox="0 0 218 59" id="logo1">
    <path d="M17.957 56.302l-5.96-10.321 8.746-15.107 5.557 9.627 32.807-.018-9.31 15.962-31.84-.143z" fill="#FFAD64"></path>
    <path d="M64.965 30.235l-5.96 10.321-17.454-.02 5.558-9.627L30.69 2.507l18.478.081 15.797 27.647z" fill="#ADD4D3"></path>
    <path d="M18.875 2.451h11.918l8.71 15.127H28.387L12 45.998 2.831 29.955 18.875 2.451z" fill="#FB8351"></path>
    <path fill-rule="evenodd" clip-rule="evenodd" d="M32.246.062L32.211 0H17.467L0 29.943l11.99 20.98.015-.026 4.532 7.85 34.665.156L63.376 38.03h-.081l4.497-7.79L50.594.142 32.246.062zM43.652 20.03h.092L35.077 4.977l12.664.056 14.397 25.195-4.507 7.805-11.808.006 4.117-7.13-6.288-10.879zM29.244 4.903l5.91 10.224H26.97L12.963 39.42l-.956 1.65-6.345-11.102L20.283 4.903h8.96zm-5.682 25.951l6.242-10.824h8.184l6.29 10.88-4.119 7.132-12.444.007-4.153-7.195zm-8.728 15.137l2.375-4.118 3.53-6.1 4.146 7.18 12.442-.006-.02.035 17.493.02-6.407 10.985-29.017-.13-4.542-7.866z" fill="#333237"></path>
    <path d="M82.071 50.373V38.896H77.83v-1.289h10.11v1.289h-4.242v11.477H82.07zm10.385.199c-1.679 0-2.934-.403-3.767-1.209-.832-.806-1.248-2.048-1.248-3.727 0-1.506.356-2.689 1.07-3.548.727-.872 1.87-1.309 3.43-1.309.924 0 1.684.172 2.279.516.608.33 1.057.793 1.348 1.388.304.581.456 1.242.456 1.982v1.764h-6.958c.053.714.205 1.275.456 1.685.264.41.654.707 1.17.892.528.172 1.222.258 2.08.258.965 0 1.851-.165 2.657-.496v1.269a6.6 6.6 0 01-1.388.397 8.744 8.744 0 01-1.585.138zm-3.39-5.312h5.51v-.773c0-.767-.204-1.355-.614-1.765-.396-.423-1.057-.634-1.982-.634-1.123 0-1.89.264-2.3.793-.41.528-.614 1.321-.614 2.379zm13.781 5.312c-1.639 0-2.855-.423-3.648-1.269-.793-.858-1.19-2.068-1.19-3.627 0-1.652.45-2.881 1.349-3.687.898-.806 2.108-1.21 3.627-1.21.622 0 1.137.047 1.547.14.409.079.806.21 1.189.396v1.288c-.714-.343-1.526-.515-2.438-.515-1.163 0-2.062.277-2.696.833-.635.541-.952 1.46-.952 2.755 0 1.242.278 2.154.833 2.735.555.569 1.473.853 2.755.853.912 0 1.751-.172 2.518-.516v1.309c-.41.172-.853.297-1.328.377a8.031 8.031 0 01-1.566.138zm4.716-.199v-13.36h1.625v4.975a5.555 5.555 0 011.527-.872c.595-.225 1.282-.337 2.061-.337 1.137 0 1.989.278 2.558.833.568.555.852 1.427.852 2.616v6.145h-1.625v-6.085c0-.82-.185-1.388-.555-1.705-.357-.33-.952-.496-1.785-.496-.528 0-1.077.12-1.645.357a4.13 4.13 0 00-1.388.892v7.037h-1.625z" fill="#fff"></path>
    <path d="M122.669 50.572c-1.322 0-2.379-.29-3.172-.872-.793-.582-1.189-1.361-1.189-2.34 0-.898.277-1.671.832-2.319.555-.647 1.315-1.222 2.28-1.724a17.006 17.006 0 01-1.308-1.447c-.357-.45-.536-.991-.536-1.626 0-.793.271-1.46.813-2.002.555-.555 1.335-.832 2.339-.832.978 0 1.738.257 2.28.773.541.515.813 1.202.813 2.061 0 .714-.192 1.315-.576 1.804-.383.49-.931.985-1.645 1.487l3.291 3.35c.224-.49.337-1.11.337-1.863v-.278h1.289v.278c0 .515-.06 1.017-.179 1.506a4.244 4.244 0 01-.515 1.269l1.784 1.804-.992.892-1.586-1.566c-.462.568-1.063.984-1.803 1.249-.74.264-1.593.396-2.557.396zm-.08-7.83c.622-.383 1.091-.747 1.408-1.09.317-.357.476-.806.476-1.348 0-.503-.139-.899-.417-1.19-.264-.304-.707-.456-1.328-.456-.634 0-1.097.159-1.387.476-.278.317-.417.707-.417 1.17 0 .423.146.812.436 1.17.304.356.714.779 1.229 1.268zm.08 6.66c.766 0 1.42-.112 1.962-.337a3.698 3.698 0 001.408-1.05l-3.628-3.707c-.859.396-1.5.826-1.923 1.288-.409.45-.614 1.025-.614 1.725 0 .687.264 1.21.793 1.566.528.344 1.196.515 2.002.515zM78.47 28.341V10.665h5.16v13.724h7.96v3.952H78.47zm21.42.275c-2.598 0-4.52-.577-5.763-1.73-1.226-1.152-1.84-2.836-1.84-5.05 0-2.196.623-3.87 1.867-5.023 1.244-1.17 3.157-1.756 5.737-1.756 2.598 0 4.519.585 5.763 1.756 1.263 1.153 1.894 2.827 1.894 5.023 0 2.214-.622 3.898-1.866 5.05-1.244 1.153-3.175 1.73-5.791 1.73zm0-3.76c.842 0 1.446-.239 1.812-.714.384-.476.576-1.245.576-2.306 0-1.043-.192-1.802-.576-2.278-.366-.494-.97-.741-1.811-.741-.824 0-1.419.247-1.785.741-.365.476-.548 1.235-.548 2.278 0 1.061.182 1.83.548 2.306.366.476.961.713 1.785.713zm15.301 8.316a28.63 28.63 0 01-2.086-.082 19.194 19.194 0 01-2.141-.22 11.045 11.045 0 01-1.647-.384v-3.294a11.59 11.59 0 001.702.412c.658.11 1.326.192 2.003.247a23.17 23.17 0 001.867.082c.97 0 1.729-.055 2.278-.165.567-.091.851-.265.851-.521 0-.22-.092-.366-.275-.44-.183-.054-.53-.082-1.043-.082h-3.431c-1.335 0-2.369-.21-3.101-.63-.714-.44-1.071-1.09-1.071-1.95 0-1.207.668-2.049 2.004-2.525-.75-.384-1.299-.869-1.647-1.454-.348-.586-.521-1.327-.521-2.224 0-1.683.567-2.918 1.701-3.705 1.153-.787 2.809-1.18 4.968-1.18.458 0 .97.036 1.537.11.568.054.979.11 1.235.164h5.106l-.11 3.13h-1.729c.329.42.494.932.494 1.536 0 1.336-.394 2.397-1.18 3.184-.769.769-1.986 1.153-3.651 1.153-.238 0-.494-.01-.769-.028a14.11 14.11 0 00-.768-.082 4.02 4.02 0 00-1.043.22c-.293.11-.439.292-.439.549 0 .183.082.31.247.384.165.055.393.082.686.082h2.992c1.336 0 2.388.311 3.156.933.769.623 1.153 1.537 1.153 2.745 0 1.281-.595 2.27-1.784 2.964-1.189.714-3.037 1.07-5.544 1.07zm.439-11.665c.805 0 1.363-.138 1.674-.412.311-.274.467-.732.467-1.372 0-.64-.156-1.107-.467-1.4-.311-.293-.869-.44-1.674-.44-.75 0-1.299.147-1.647.44-.329.274-.494.74-.494 1.4 0 .622.155 1.08.466 1.372.33.274.888.412 1.675.412zm16.265 7.109c-2.599 0-4.52-.577-5.765-1.73-1.226-1.152-1.839-2.836-1.839-5.05 0-2.196.623-3.87 1.867-5.023 1.244-1.17 3.157-1.756 5.737-1.756 2.598 0 4.519.585 5.763 1.756 1.264 1.153 1.894 2.827 1.894 5.023 0 2.214-.622 3.898-1.866 5.05-1.245 1.153-3.175 1.73-5.791 1.73zm0-3.76c.841 0 1.445-.239 1.811-.714.384-.476.577-1.245.577-2.306 0-1.043-.193-1.802-.577-2.278-.366-.494-.97-.741-1.811-.741-.823 0-1.419.247-1.785.741-.366.476-.548 1.235-.548 2.278 0 1.061.182 1.83.548 2.306.366.476.962.713 1.785.713z" fill="#FB8351"></path>
    <path d="M141.82 13.601V9.87h5.572v3.73h-5.572zm.411 14.74v-9.25h-1.892l.438-3.76h6.615v13.01h-5.161zm7.636 5.929V15.33h4.475l.246 1.043a5.951 5.951 0 011.729-.96c.641-.239 1.381-.357 2.224-.357 1.939 0 3.431.494 4.474 1.482 1.06.97 1.591 2.626 1.591 4.968 0 2.324-.558 4.09-1.674 5.297-1.116 1.208-2.653 1.812-4.611 1.812-1.299 0-2.397-.247-3.294-.741v6.395h-5.16zm7.136-9.415c.751 0 1.328-.265 1.73-.796.403-.53.604-1.354.604-2.47 0-1.08-.193-1.811-.577-2.196-.366-.384-.933-.576-1.702-.576-.768 0-1.445.256-2.031.768v4.612c.294.22.586.384.879.494.292.11.658.164 1.097.164zm14.48 3.761c-1.116 0-2.168-.083-3.156-.247-.97-.147-1.738-.339-2.306-.577v-3.705c.64.293 1.4.521 2.278.686.897.165 1.657.247 2.277.247.66 0 1.154-.018 1.483-.055.349-.037.521-.192.521-.466 0-.311-.301-.55-.905-.714a40.272 40.272 0 01-2.277-.714c-1.191-.42-2.079-.915-2.664-1.482s-.877-1.39-.877-2.47c0-1.3.512-2.297 1.537-2.992 1.024-.713 2.634-1.07 4.829-1.07.843 0 1.712.064 2.608.192.896.128 1.601.274 2.114.439v3.623a7.757 7.757 0 00-1.811-.521 10.46 10.46 0 00-1.757-.165c-.585 0-1.108.027-1.565.082-.458.055-.686.21-.686.467 0 .292.257.503.769.631.53.128 1.235.33 2.113.604.989.293 1.756.613 2.306.96.567.348.961.769 1.18 1.263.237.494.357 1.107.357 1.84 0 1.317-.541 2.341-1.62 3.073-1.062.714-2.644 1.07-4.748 1.07zm13.018-.001c-1.519 0-2.708-.43-3.568-1.29-.859-.86-1.289-2.122-1.289-3.788v-8.206h5.159v7.795c0 1.134.577 1.701 1.729 1.701a2.96 2.96 0 001.236-.274c.402-.183.722-.412.96-.686V15.33h5.16v13.01h-4.83l-.137-.989c-.512.366-1.145.668-1.894.906-.732.238-1.574.357-2.526.357zm11.845-.274v-13.01h4.775l.137 1.043a7.964 7.964 0 011.894-.933 6.863 6.863 0 012.334-.384c.84 0 1.5.118 1.975.357a2.86 2.86 0 011.153 1.042 7.747 7.747 0 011.977-1.015c.749-.256 1.628-.384 2.635-.384 1.518 0 2.634.402 3.348 1.207.714.787 1.07 1.995 1.07 3.623v8.454h-5.078v-7.85c0-.585-.118-.997-.356-1.235-.237-.256-.631-.384-1.181-.384-.713 0-1.299.256-1.755.768.035.238.054.467.054.686v8.015h-4.776V20.41c0-.53-.091-.915-.274-1.153-.184-.256-.531-.384-1.043-.384-.348 0-.687.091-1.016.274-.33.183-.623.403-.878.659v8.536h-4.995zm-58.335 22.395c-1.375 0-2.518-.258-3.43-.773a5.015 5.015 0 01-2.021-2.2c-.45-.952-.674-2.062-.674-3.33 0-1.388.212-2.598.634-3.628.423-1.031 1.083-1.824 1.983-2.38.899-.567 2.06-.852 3.488-.852.74 0 1.407.053 2.002.159a10.75 10.75 0 011.706.436v1.427a9.595 9.595 0 00-1.686-.456 9.587 9.587 0 00-1.882-.178c-1.151 0-2.063.218-2.736.654-.674.436-1.157 1.064-1.448 1.883-.291.82-.436 1.798-.436 2.934 0 1.573.371 2.789 1.11 3.648.754.846 1.937 1.268 3.548 1.268.595 0 1.196-.046 1.804-.139a8.484 8.484 0 001.726-.436v1.448c-.517.158-1.078.284-1.686.376a13.04 13.04 0 01-2.002.139zm10.362-.001c-1.639 0-2.835-.416-3.588-1.248-.74-.846-1.109-2.062-1.109-3.648 0-1.573.377-2.782 1.129-3.628.753-.845 1.944-1.268 3.568-1.268 1.626 0 2.816.423 3.568 1.268.754.846 1.13 2.055 1.13 3.628 0 1.586-.369 2.802-1.11 3.648-.739.832-1.935 1.248-3.588 1.248zm0-1.387c1.123 0 1.917-.278 2.379-.833.463-.568.694-1.46.694-2.676 0-1.216-.237-2.101-.714-2.656-.462-.569-1.249-.853-2.359-.853-1.109 0-1.903.285-2.378.853-.462.555-.694 1.44-.694 2.656 0 1.216.232 2.108.694 2.676.463.555 1.255.833 2.378.833zm6.685 1.19V49.17h1.467v1.368h-1.467z" fill="#fff"></path>
</symbol>
<symbol fill="none" xmlns="http://www.w3.org/2000/svg" viewBox="0 0 213 59" id="logo2">
    <path fill-rule="evenodd" clip-rule="evenodd" d="M105.236 6.435a5.257 5.257 0 017.434 7.434l-12.516 12.515c-3.593-4.815-3.203-11.664 1.171-16.038l3.911-3.91z" fill="#4F9E91"></path>
    <path fill-rule="evenodd" clip-rule="evenodd" d="M123.127 34.672a5.254 5.254 0 010 7.434 5.256 5.256 0 01-7.433 0L103.179 29.59c4.815-3.593 11.664-3.203 16.038 1.171l3.91 3.911z" fill="#EBE1C5"></path>
    <path fill-rule="evenodd" clip-rule="evenodd" d="M94.89 52.565a5.256 5.256 0 11-7.433-7.434l12.515-12.516c3.593 4.816 3.203 11.665-1.17 16.039l-3.911 3.91z" fill="#EBCC6E"></path>
    <path fill-rule="evenodd" clip-rule="evenodd" d="M76.999 24.327a5.257 5.257 0 017.434-7.434l12.515 12.515c-4.816 3.593-11.665 3.203-16.039-1.17L77 24.326zm25.44 26.705a16.53 16.53 0 004.22-11.912l6.011 6.01.045.045v4.291a5.256 5.256 0 01-10.276 1.566z" fill="#ED834E"></path>
    <path fill-rule="evenodd" clip-rule="evenodd" d="M78.531 31.875a16.531 16.531 0 0011.912 4.22l-6.01 6.011-.045.045h-4.291a5.256 5.256 0 01-1.566-10.276z" fill="#4F9E91"></path>
    <path fill-rule="evenodd" clip-rule="evenodd" d="M121.595 27.125a16.532 16.532 0 00-11.912-4.22l6.011-6.011.045-.045h4.291a5.257 5.257 0 011.565 10.276z" fill="#EBCC6E"></path>
    <path fill-rule="evenodd" clip-rule="evenodd" d="M97.688 7.968a16.532 16.532 0 00-4.22 11.912l-6.011-6.01-.045-.046v-4.29a5.257 5.257 0 0110.276-1.566z" fill="#EBE1C5"></path>
    <path fill-rule="evenodd" clip-rule="evenodd" d="M92.668 0a9.533 9.533 0 00-9.533 9.533v1.855a9.533 9.533 0 00-9.16 15.964l1.31 1.31a9.533 9.533 0 004.811 17.765h1.855a9.533 9.533 0 0015.964 9.16l3.91-3.909a16.533 16.533 0 004.834-12.558l6.011 6.01a9.533 9.533 0 0013.482 0 9.532 9.532 0 000-13.482l-1.31-1.31a9.53 9.53 0 004.721-8.233c0-5.265-4.269-9.533-9.533-9.533h-1.854a9.533 9.533 0 00-15.964-9.16l-3.91 3.91a16.532 16.532 0 00-4.834 12.558l-6.011-6.01-.045-.045V9.533a5.257 5.257 0 0110.276-1.565c.197-.22.402-.435.613-.646l2.6-2.6A9.53 9.53 0 0092.668 0zm23.071 16.849l-.045.044-6.011 6.011a16.53 16.53 0 0111.912 4.22 5.256 5.256 0 00-1.565-10.276h-4.291zM84.388 42.15l.045-.045 6.01-6.01a16.532 16.532 0 01-11.911-4.22 5.257 5.257 0 001.565 10.276h4.29zM107.458 59a9.53 9.53 0 01-8.232-4.722l2.599-2.6c.212-.211.416-.427.614-.646a5.258 5.258 0 0010.276-1.565v-4.292a9.486 9.486 0 004.277 2.437v1.855c0 5.265-4.269 9.533-9.534 9.533zm5.212-52.565a5.257 5.257 0 00-7.434 0l-3.911 3.91c-4.374 4.375-4.764 11.224-1.171 16.04l12.516-12.516a5.256 5.256 0 000-7.434zm10.457 35.671a5.255 5.255 0 000-7.434l-3.91-3.91c-4.374-4.374-11.223-4.765-16.039-1.171l12.516 12.515a5.256 5.256 0 007.433 0zM94.891 52.564a5.257 5.257 0 01-7.434-7.434l12.515-12.515c3.594 4.816 3.203 11.665-1.17 16.039l-3.911 3.91zm-17.892-35.67a5.257 5.257 0 000 7.434l3.91 3.91c4.374 4.374 11.223 4.764 16.04 1.171L84.432 16.894a5.257 5.257 0 00-7.434 0z" fill="#3D3A2C"></path>
    <path d="M0 19.278h4.675v14.528h8.03v3.935H0V19.278zm21.194 18.86c-1.567 0-2.941-.282-4.12-.846-1.18-.58-2.096-1.373-2.748-2.377-.634-1.021-.95-2.192-.95-3.513 0-1.32.316-2.483.95-3.486.652-1.022 1.567-1.814 2.747-2.378 1.18-.58 2.553-.871 4.12-.871 1.568 0 2.941.29 4.121.871 1.18.564 2.087 1.356 2.72 2.378.652 1.003.978 2.165.978 3.486 0 1.32-.326 2.492-.977 3.513-.634 1.004-1.54 1.796-2.72 2.377-1.18.564-2.554.846-4.121.846zm0-3.62c.933 0 1.673-.272 2.218-.818.564-.563.846-1.33.846-2.298s-.282-1.726-.846-2.271c-.545-.564-1.285-.846-2.218-.846-.934 0-1.682.282-2.245.846-.546.545-.82 1.303-.82 2.271 0 .969.274 1.735.82 2.298.563.546 1.311.819 2.245.819zm16.55 9.299c-.845 0-1.7-.08-2.562-.238-.845-.159-1.576-.37-2.192-.634v-3.223c1.39.6 2.976.898 4.754.898 1.286 0 2.21-.264 2.774-.792.58-.528.871-1.303.871-2.324v-.766c-.51.44-1.144.783-1.902 1.03-.74.246-1.532.37-2.377.37-1.338 0-2.518-.282-3.54-.846a6.12 6.12 0 01-2.403-2.377c-.563-1.021-.845-2.192-.845-3.513 0-1.338.282-2.518.845-3.54a5.768 5.768 0 012.377-2.35c1.022-.564 2.193-.845 3.514-.845 1.813 0 3.31.554 4.49 1.664v-1.268h4.49V36.87c0 2.2-.678 3.91-2.034 5.124-1.338 1.215-3.425 1.823-6.26 1.823zm.529-9.272c.721 0 1.364-.184 1.928-.554.563-.37.96-.863 1.188-1.48v-2.218a2.975 2.975 0 00-1.215-1.453 3.39 3.39 0 00-1.901-.555c-.951 0-1.717.282-2.299.846-.58.545-.871 1.294-.871 2.245 0 .968.29 1.743.871 2.324.582.564 1.348.845 2.299.845zm16.763 3.593c-1.567 0-2.94-.282-4.12-.846-1.18-.58-2.096-1.373-2.747-2.377-.634-1.021-.951-2.192-.951-3.513 0-1.32.317-2.483.95-3.486.652-1.022 1.568-1.814 2.748-2.378 1.18-.58 2.553-.871 4.12-.871 1.567 0 2.94.29 4.12.871 1.18.564 2.087 1.356 2.721 2.378.652 1.003.978 2.165.978 3.486 0 1.32-.326 2.492-.978 3.513-.634 1.004-1.54 1.796-2.72 2.377-1.18.564-2.554.846-4.12.846zm0-3.62c.933 0 1.673-.272 2.219-.818.563-.563.845-1.33.845-2.298s-.282-1.726-.845-2.271c-.546-.564-1.286-.846-2.219-.846-.933 0-1.682.282-2.245.846-.546.545-.819 1.303-.819 2.271 0 .969.273 1.735.819 2.298.563.546 1.312.819 2.245.819zm82.382-15.24h4.676v18.463h-4.676V19.278zm7.043 5.785h4.491v1.268c1.179-1.11 2.675-1.664 4.489-1.664 1.321 0 2.492.281 3.513.845a5.761 5.761 0 012.377 2.35c.564 1.004.846 2.175.846 3.514 0 1.32-.282 2.5-.846 3.54a5.934 5.934 0 01-2.377 2.376c-1.003.564-2.174.846-3.513.846a7.471 7.471 0 01-2.429-.397c-.757-.246-1.392-.59-1.902-1.03v6.815h-4.649V25.063zm7.766 9.456c.951 0 1.717-.282 2.297-.845.581-.564.873-1.33.873-2.298 0-.969-.292-1.726-.873-2.272-.58-.563-1.346-.845-2.297-.845-.705 0-1.339.185-1.903.555a2.978 2.978 0 00-1.214 1.452v2.245c.247.617.651 1.11 1.214 1.48a3.518 3.518 0 001.903.528zm14.88 3.619c-1.02 0-2.085-.106-3.195-.317-1.109-.194-1.991-.476-2.642-.846v-3.407c.722.423 1.585.775 2.589 1.057 1.021.264 1.954.396 2.8.396.615 0 1.065-.044 1.346-.132.283-.088.423-.264.423-.529a.567.567 0 00-.29-.501c-.176-.141-.511-.282-1.004-.423a34.719 34.719 0 00-1.664-.502c-1.074-.317-1.919-.643-2.536-.977-.616-.335-1.073-.758-1.374-1.268-.299-.51-.448-1.153-.448-1.928 0-1.374.537-2.395 1.611-3.064 1.092-.687 2.58-1.03 4.464-1.03a15.2 15.2 0 012.879.29c1.022.194 1.787.45 2.298.766v3.355c-.528-.352-1.233-.643-2.113-.872-.863-.229-1.673-.343-2.431-.343-.597 0-1.065.061-1.399.184-.334.106-.501.3-.501.582 0 .264.167.466.501.607.334.141.933.317 1.796.528.563.141.801.203.713.185 1.127.3 1.998.634 2.615 1.004.617.37 1.047.81 1.294 1.32.265.494.397 1.128.397 1.903 0 1.215-.528 2.183-1.585 2.905-1.039.704-2.554 1.057-4.544 1.057zm13.069 0c-1.742 0-3.054-.484-3.934-1.453-.863-.968-1.295-2.245-1.295-3.83v-7.792h4.649v7.264c0 1.461.66 2.192 1.981 2.192a3.23 3.23 0 001.638-.423c.492-.281.897-.695 1.214-1.24v-7.793h4.649v12.679h-4.489v-1.374a5.3 5.3 0 01-1.982 1.32 6.67 6.67 0 01-2.431.45zm11.282-13.075h4.306v1.373a5.48 5.48 0 011.823-1.294 5.164 5.164 0 012.192-.475c.951 0 1.708.14 2.272.422a3.346 3.346 0 011.399 1.268 5.598 5.598 0 011.929-1.241 6.21 6.21 0 012.298-.45c1.673 0 2.862.432 3.566 1.295.704.845 1.056 2.069 1.056 3.671v8.11h-4.438v-7.45c0-.704-.131-1.214-.396-1.531-.263-.317-.704-.476-1.319-.476-.793 0-1.437.282-1.929.846.017.299.026.757.026 1.373v7.237h-4.437v-7.633c0-.652-.114-1.118-.344-1.4-.229-.282-.634-.423-1.214-.423-.899 0-1.673.502-2.325 1.506v7.95h-4.465V25.063z" fill="#fff"></path>
</symbol>
<symbol fill="none" xmlns="http://www.w3.org/2000/svg" viewBox="0 0 207 59" id="logo3">
    <path d="M29.5 0A29.502 29.502 0 000 29.5 29.502 29.502 0 0029.5 59V44.25a14.747 14.747 0 01-13.627-9.105 14.747 14.747 0 017.982-19.272A14.747 14.747 0 0129.5 14.75V0z" fill="#0F52FF"></path>
    <path d="M29.5 39.333c5.43 0 9.833-4.402 9.833-9.833 0-5.43-4.402-9.833-9.833-9.833-5.43 0-9.833 4.402-9.833 9.833 0 5.43 4.402 9.833 9.833 9.833z" fill="#0F52FF"></path>
    <path d="M0 29.5A29.502 29.502 0 0029.5 59 29.503 29.503 0 0059 29.5H44.25a14.747 14.747 0 01-9.105 13.627 14.747 14.747 0 01-19.272-7.982A14.747 14.747 0 0114.75 29.5H0zm39.333 0a9.834 9.834 0 00-19.666 0h19.666z" fill="#5BD0F4"></path>
    <path d="M74.407 18.416h-3.664v20.355h3.664V18.416zM76.8 31.56c0 4.711 3.256 7.619 7.56 7.619 4.303 0 7.56-2.908 7.56-7.619 0-4.71-3.257-7.618-7.56-7.618-4.304 0-7.56 2.908-7.56 7.618zm3.663 0c0-2.791 1.629-4.42 3.897-4.42s3.896 1.629 3.896 4.42c0 2.792-1.628 4.42-3.896 4.42-2.269 0-3.897-1.628-3.897-4.42zm24.55-7.211v1.948h-.291c-.872-1.25-2.268-2.355-4.769-2.355-3.43 0-6.513 2.908-6.513 7.386s3.082 7.386 6.513 7.386c2.501 0 3.897-1.134 4.711-2.268h.291v1.395c0 2.792-1.629 4.071-4.013 4.071s-3.606-1.28-4.1-2.937L93.556 40.4c.756 2.181 2.966 4.595 7.444 4.595 4.595 0 7.619-2.414 7.619-7.066v-13.58h-3.606zm-3.955 11.224c-2.268 0-3.954-1.628-3.954-4.245s1.686-4.246 3.954-4.246c2.268 0 3.955 1.629 3.955 4.246 0 2.617-1.687 4.245-3.955 4.245zm9.931-4.013c0 4.711 3.257 7.619 7.561 7.619 4.303 0 7.56-2.908 7.56-7.619 0-4.71-3.257-7.618-7.56-7.618-4.304 0-7.561 2.908-7.561 7.618zm3.664 0c0-2.791 1.629-4.42 3.897-4.42s3.896 1.629 3.896 4.42c0 2.792-1.628 4.42-3.896 4.42s-3.897-1.628-3.897-4.42z" fill="#0F52FF"></path>
    <path d="M128.986 20.161c0 1.483 1.135 2.5 2.589 2.5 1.453 0 2.588-1.017 2.588-2.5s-1.135-2.5-2.588-2.5c-1.454 0-2.589 1.017-2.589 2.5zm4.42 4.187h-3.663v14.423h3.663V24.348zm3.265 20.24h3.665V36.91h.29c.814 1.163 2.21 2.268 4.711 2.268 3.431 0 6.514-2.908 6.514-7.619 0-4.71-3.083-7.618-6.514-7.618-2.501 0-3.897 1.105-4.769 2.355h-.291V24.35h-3.606v20.239zm7.56-8.55c-2.267 0-3.954-1.628-3.954-4.478 0-2.85 1.687-4.478 3.954-4.478 2.269 0 3.955 1.629 3.955 4.478 0 2.85-1.686 4.479-3.955 4.479zm9.758-7.648c0 2.85 2.383 3.898 5.407 4.479l.757.145c1.802.35 2.616.786 2.616 1.716 0 .93-.814 1.658-2.499 1.658-1.688 0-3.053-.698-3.433-2.792l-3.373.872c.496 3.024 3.025 4.711 6.806 4.711 3.663 0 6.048-1.715 6.048-4.74 0-3.024-2.443-3.838-5.699-4.478l-.757-.145c-1.512-.291-2.327-.698-2.327-1.658 0-.872.757-1.425 2.153-1.425s2.384.582 2.733 2.152l3.315-1.018c-.698-2.326-2.82-3.925-6.048-3.925-3.432 0-5.699 1.6-5.699 4.449zm28.786 10.381V24.348h-3.663v7.445c0 2.675-1.308 4.245-3.548 4.245-1.978 0-3.082-1.076-3.082-3.257v-8.433h-3.665v8.608c0 3.576 2.241 6.048 5.614 6.048 2.645 0 3.867-1.163 4.448-2.384h.29v2.151h3.606zm3.25-14.422v14.423h3.665v-8.608c0-1.977.931-3.082 2.616-3.082 1.455 0 2.327.814 2.327 2.384v9.306h3.664v-8.608c0-1.977.931-3.082 2.617-3.082 1.454 0 2.326.814 2.326 2.384v9.306h3.665v-9.48c0-3.49-2.153-5.176-4.828-5.176-2.355 0-3.431 1.047-4.129 2.268h-.291c-.669-1.367-1.861-2.268-3.955-2.268-2.093 0-3.228.93-3.779 2.035h-.292V24.35h-3.606z" fill="#5BD0F4"></path>
</symbol>
</svg>